# Blender v2.78 (sub 0) OBJ File: ''
# www.blender.org
v 0.000000 0.951057 -0.309017
v 0.000000 0.809017 -0.587785
v 0.000000 0.587785 -0.809017
v 0.000000 -0.309017 -0.951056
v 0.000000 -0.587785 -0.809017
v 0.181636 0.951057 -0.250000
v 0.345492 0.809017 -0.475528
v 0.475528 0.587785 -0.654508
v 0.559017 0.309017 -0.769421
v 0.587785 -0.000000 -0.809017
v 0.559017 -0.309017 -0.769421
v 0.475528 -0.587785 -0.654508
v 0.345492 -0.809017 -0.475528
v 0.181636 -0.951057 -0.250000
v 0.293893 0.951057 -0.095491
v 0.559017 0.809017 -0.181635
v 0.769421 0.587785 -0.250000
v 0.904509 0.309017 -0.293892
v 0.951057 -0.000000 -0.309017
v 0.904509 -0.309017 -0.293892
v 0.769421 -0.587785 -0.250000
v 0.559017 -0.809017 -0.181635
v 0.293893 -0.951057 -0.095491
v 0.293893 0.951057 0.095492
v 0.559017 0.809017 0.181636
v 0.769421 0.587785 0.250000
v 0.904509 0.309017 0.293893
v 0.951057 -0.000000 0.309017
v 0.904509 -0.309017 0.293893
v 0.769421 -0.587785 0.250000
v 0.559017 -0.809017 0.181636
v 0.293893 -0.951057 0.095492
v 0.181636 0.951057 0.250001
v 0.345492 0.809017 0.475529
v 0.475528 0.587785 0.654509
v 0.559017 0.309017 0.769421
v 0.587785 -0.000000 0.809017
v 0.559017 -0.309017 0.769421
v 0.475528 -0.587785 0.654509
v 0.345492 -0.809017 0.475529
v 0.181636 -0.951057 0.250000
v 0.000000 -1.000000 0.000000
v 0.000000 0.951057 0.309018
v 0.000000 0.809017 0.587786
v -0.000000 0.587785 0.809018
v 0.000000 0.309017 0.951057
v 0.000000 -0.000000 1.000001
v -0.000000 -0.309017 0.951057
v -0.000000 -0.587785 0.809018
v 0.000000 -0.809017 0.587786
v 0.000000 -0.951057 0.309017
v -0.000000 1.000000 0.000001
v -0.181636 0.951057 0.250001
v -0.345492 0.809017 0.475529
v -0.475529 0.587785 0.654509
v -0.559017 0.309017 0.769422
v -0.587785 -0.000000 0.809018
v -0.559017 -0.309017 0.769421
v -0.475529 -0.587785 0.654509
v -0.345492 -0.809017 0.475529
v -0.181636 -0.951057 0.250000
v -0.293893 0.951057 0.095492
v -0.559017 0.809017 0.181636
v -0.769421 0.587785 0.250000
v -0.904509 0.309017 0.293893
v -0.951057 -0.000000 0.309018
v -0.904509 -0.309017 0.293893
v -0.769421 -0.587785 0.250000
v -0.559017 -0.809017 0.181636
v -0.293893 -0.951057 0.095492
v -0.293893 0.951057 -0.095491
v -0.559017 0.809017 -0.181635
v -0.769421 0.587785 -0.250000
v -0.904509 0.309017 -0.293892
v -0.951057 -0.000000 -0.309017
v -0.904509 -0.309017 -0.293892
v -0.769421 -0.587785 -0.250000
v -0.559017 -0.809017 -0.181635
v -0.293893 -0.951057 -0.095491
v -0.181636 0.951057 -0.250000
v -0.345492 0.809017 -0.475528
v -0.475529 0.587785 -0.654509
v -0.559017 0.309017 -0.769421
v -0.587786 -0.000000 -0.809017
v -0.559017 -0.309017 -0.769421
v -0.475529 -0.587785 -0.654509
v -0.345492 -0.809017 -0.475528
v -0.181636 -0.951057 -0.250000
v -0.000000 0.309017 -0.951057
v -0.000000 -0.000000 -1.000000
v -0.000000 -0.809017 -0.587785
v -0.000000 -0.951057 -0.309017
vn 0.3056 0.1490 -0.9404
vn 0.3056 0.1490 -0.9404
vn 0.3056 0.1490 -0.9404
vn 0.3056 0.1490 -0.9404
vn 0.1459 0.8815 -0.4491
vn 0.1459 0.8815 -0.4491
vn 0.1459 0.8815 -0.4491
vn 0.1459 0.8815 -0.4491
vn 0.1459 -0.8815 -0.4491
vn 0.1459 -0.8815 -0.4491
vn 0.1459 -0.8815 -0.4491
vn 0.1459 -0.8815 -0.4491
vn 0.3056 -0.1490 -0.9404
vn 0.3056 -0.1490 -0.9404
vn 0.3056 -0.1490 -0.9404
vn 0.3056 -0.1490 -0.9404
vn 0.2239 0.6892 -0.6892
vn 0.2239 0.6892 -0.6892
vn 0.2239 0.6892 -0.6892
vn 0.2239 0.6892 -0.6892
vn 0.0508 -0.9864 -0.1562
vn 0.0508 -0.9864 -0.1562
vn 0.0508 -0.9864 -0.1562
vn 0.2781 -0.4361 -0.8559
vn 0.2781 -0.4361 -0.8559
vn 0.2781 -0.4361 -0.8559
vn 0.2781 -0.4361 -0.8559
vn 0.2781 0.4361 -0.8559
vn 0.2781 0.4361 -0.8559
vn 0.2781 0.4361 -0.8559
vn 0.2781 0.4361 -0.8559
vn 0.0508 0.9864 -0.1562
vn 0.0508 0.9864 -0.1562
vn 0.0508 0.9864 -0.1562
vn 0.2239 -0.6892 -0.6892
vn 0.2239 -0.6892 -0.6892
vn 0.2239 -0.6892 -0.6892
vn 0.2239 -0.6892 -0.6892
vn 0.3821 0.8815 -0.2776
vn 0.3821 0.8815 -0.2776
vn 0.3821 0.8815 -0.2776
vn 0.3821 0.8815 -0.2776
vn 0.3821 -0.8815 -0.2776
vn 0.3821 -0.8815 -0.2776
vn 0.3821 -0.8815 -0.2776
vn 0.3821 -0.8815 -0.2776
vn 0.8000 -0.1490 -0.5812
vn 0.8000 -0.1490 -0.5812
vn 0.8000 -0.1490 -0.5812
vn 0.8000 -0.1490 -0.5812
vn 0.5862 0.6892 -0.4259
vn 0.5862 0.6892 -0.4259
vn 0.5862 0.6892 -0.4259
vn 0.5862 0.6892 -0.4259
vn 0.1329 -0.9864 -0.0966
vn 0.1329 -0.9864 -0.0966
vn 0.1329 -0.9864 -0.0966
vn 0.7280 -0.4361 -0.5290
vn 0.7280 -0.4361 -0.5290
vn 0.7280 -0.4361 -0.5290
vn 0.7280 -0.4361 -0.5290
vn 0.7280 0.4361 -0.5290
vn 0.7280 0.4361 -0.5290
vn 0.7280 0.4361 -0.5290
vn 0.7280 0.4361 -0.5290
vn 0.1329 0.9864 -0.0966
vn 0.1329 0.9864 -0.0966
vn 0.1329 0.9864 -0.0966
vn 0.5862 -0.6892 -0.4259
vn 0.5862 -0.6892 -0.4259
vn 0.5862 -0.6892 -0.4259
vn 0.5862 -0.6892 -0.4259
vn 0.8000 0.1490 -0.5812
vn 0.8000 0.1490 -0.5812
vn 0.8000 0.1490 -0.5812
vn 0.8000 0.1490 -0.5812
vn 0.7246 -0.6892 0.0000
vn 0.7246 -0.6892 0.0000
vn 0.7246 -0.6892 0.0000
vn 0.7246 -0.6892 0.0000
vn 0.9888 0.1490 0.0000
vn 0.9888 0.1490 0.0000
vn 0.9888 0.1490 0.0000
vn 0.9888 0.1490 0.0000
vn 0.4722 0.8815 0.0000
vn 0.4722 0.8815 0.0000
vn 0.4722 0.8815 0.0000
vn 0.4722 0.8815 0.0000
vn 0.4722 -0.8815 0.0000
vn 0.4722 -0.8815 0.0000
vn 0.4722 -0.8815 0.0000
vn 0.4722 -0.8815 0.0000
vn 0.9888 -0.1490 0.0000
vn 0.9888 -0.1490 0.0000
vn 0.9888 -0.1490 0.0000
vn 0.9888 -0.1490 0.0000
vn 0.7246 0.6892 0.0000
vn 0.7246 0.6892 0.0000
vn 0.7246 0.6892 0.0000
vn 0.7246 0.6892 0.0000
vn 0.1643 -0.9864 0.0000
vn 0.1643 -0.9864 0.0000
vn 0.1643 -0.9864 0.0000
vn 0.8999 -0.4361 0.0000
vn 0.8999 -0.4361 0.0000
vn 0.8999 -0.4361 0.0000
vn 0.8999 -0.4361 0.0000
vn 0.8999 0.4361 0.0000
vn 0.8999 0.4361 0.0000
vn 0.8999 0.4361 0.0000
vn 0.8999 0.4361 0.0000
vn 0.1643 0.9864 0.0000
vn 0.1643 0.9864 0.0000
vn 0.1643 0.9864 0.0000
vn 0.7280 0.4361 0.5290
vn 0.7280 0.4361 0.5290
vn 0.7280 0.4361 0.5290
vn 0.7280 0.4361 0.5290
vn 0.1329 0.9864 0.0966
vn 0.1329 0.9864 0.0966
vn 0.1329 0.9864 0.0966
vn 0.5862 -0.6892 0.4259
vn 0.5862 -0.6892 0.4259
vn 0.5862 -0.6892 0.4259
vn 0.5862 -0.6892 0.4259
vn 0.8000 0.1490 0.5812
vn 0.8000 0.1490 0.5812
vn 0.8000 0.1490 0.5812
vn 0.8000 0.1490 0.5812
vn 0.3821 0.8815 0.2776
vn 0.3821 0.8815 0.2776
vn 0.3821 0.8815 0.2776
vn 0.3821 0.8815 0.2776
vn 0.3821 -0.8815 0.2776
vn 0.3821 -0.8815 0.2776
vn 0.3821 -0.8815 0.2776
vn 0.3821 -0.8815 0.2776
vn 0.8000 -0.1490 0.5812
vn 0.8000 -0.1490 0.5812
vn 0.8000 -0.1490 0.5812
vn 0.8000 -0.1490 0.5812
vn 0.5862 0.6892 0.4259
vn 0.5862 0.6892 0.4259
vn 0.5862 0.6892 0.4259
vn 0.5862 0.6892 0.4259
vn 0.1329 -0.9864 0.0966
vn 0.1329 -0.9864 0.0966
vn 0.1329 -0.9864 0.0966
vn 0.7280 -0.4361 0.5290
vn 0.7280 -0.4361 0.5290
vn 0.7280 -0.4361 0.5290
vn 0.7280 -0.4361 0.5290
vn 0.2781 -0.4361 0.8559
vn 0.2781 -0.4361 0.8559
vn 0.2781 -0.4361 0.8559
vn 0.2781 -0.4361 0.8559
vn 0.2781 0.4361 0.8559
vn 0.2781 0.4361 0.8559
vn 0.2781 0.4361 0.8559
vn 0.2781 0.4361 0.8559
vn 0.0508 0.9864 0.1562
vn 0.0508 0.9864 0.1562
vn 0.0508 0.9864 0.1562
vn 0.2239 -0.6892 0.6892
vn 0.2239 -0.6892 0.6892
vn 0.2239 -0.6892 0.6892
vn 0.2239 -0.6892 0.6892
vn 0.3056 0.1490 0.9404
vn 0.3056 0.1490 0.9404
vn 0.3056 0.1490 0.9404
vn 0.3056 0.1490 0.9404
vn 0.1459 0.8815 0.4491
vn 0.1459 0.8815 0.4491
vn 0.1459 0.8815 0.4491
vn 0.1459 0.8815 0.4491
vn 0.1459 -0.8815 0.4491
vn 0.1459 -0.8815 0.4491
vn 0.1459 -0.8815 0.4491
vn 0.1459 -0.8815 0.4491
vn 0.3056 -0.1490 0.9404
vn 0.3056 -0.1490 0.9404
vn 0.3056 -0.1490 0.9404
vn 0.3056 -0.1490 0.9404
vn 0.2239 0.6892 0.6892
vn 0.2239 0.6892 0.6892
vn 0.2239 0.6892 0.6892
vn 0.2239 0.6892 0.6892
vn 0.0508 -0.9864 0.1562
vn 0.0508 -0.9864 0.1562
vn 0.0508 -0.9864 0.1562
vn -0.2239 0.6892 0.6892
vn -0.2239 0.6892 0.6892
vn -0.2239 0.6892 0.6892
vn -0.2239 0.6892 0.6892
vn -0.0508 -0.9864 0.1562
vn -0.0508 -0.9864 0.1562
vn -0.0508 -0.9864 0.1562
vn -0.2781 -0.4361 0.8559
vn -0.2781 -0.4361 0.8559
vn -0.2781 -0.4361 0.8559
vn -0.2781 -0.4361 0.8559
vn -0.2781 0.4361 0.8559
vn -0.2781 0.4361 0.8559
vn -0.2781 0.4361 0.8559
vn -0.2781 0.4361 0.8559
vn -0.0508 0.9864 0.1562
vn -0.0508 0.9864 0.1562
vn -0.0508 0.9864 0.1562
vn -0.2239 -0.6892 0.6892
vn -0.2239 -0.6892 0.6892
vn -0.2239 -0.6892 0.6892
vn -0.2239 -0.6892 0.6892
vn -0.3056 0.1490 0.9404
vn -0.3056 0.1490 0.9404
vn -0.3056 0.1490 0.9404
vn -0.3056 0.1490 0.9404
vn -0.1459 0.8815 0.4491
vn -0.1459 0.8815 0.4491
vn -0.1459 0.8815 0.4491
vn -0.1459 0.8815 0.4491
vn -0.1459 -0.8815 0.4491
vn -0.1459 -0.8815 0.4491
vn -0.1459 -0.8815 0.4491
vn -0.1459 -0.8815 0.4491
vn -0.3056 -0.1490 0.9404
vn -0.3056 -0.1490 0.9404
vn -0.3056 -0.1490 0.9404
vn -0.3056 -0.1490 0.9404
vn -0.3821 -0.8815 0.2776
vn -0.3821 -0.8815 0.2776
vn -0.3821 -0.8815 0.2776
vn -0.3821 -0.8815 0.2776
vn -0.8000 -0.1490 0.5812
vn -0.8000 -0.1490 0.5812
vn -0.8000 -0.1490 0.5812
vn -0.8000 -0.1490 0.5812
vn -0.5862 0.6892 0.4259
vn -0.5862 0.6892 0.4259
vn -0.5862 0.6892 0.4259
vn -0.5862 0.6892 0.4259
vn -0.1329 -0.9864 0.0966
vn -0.1329 -0.9864 0.0966
vn -0.1329 -0.9864 0.0966
vn -0.7280 -0.4361 0.5290
vn -0.7280 -0.4361 0.5290
vn -0.7280 -0.4361 0.5290
vn -0.7280 -0.4361 0.5290
vn -0.7280 0.4361 0.5290
vn -0.7280 0.4361 0.5290
vn -0.7280 0.4361 0.5290
vn -0.7280 0.4361 0.5290
vn -0.1329 0.9864 0.0966
vn -0.1329 0.9864 0.0966
vn -0.1329 0.9864 0.0966
vn -0.5862 -0.6892 0.4259
vn -0.5862 -0.6892 0.4259
vn -0.5862 -0.6892 0.4259
vn -0.5862 -0.6892 0.4259
vn -0.8000 0.1490 0.5812
vn -0.8000 0.1490 0.5812
vn -0.8000 0.1490 0.5812
vn -0.8000 0.1490 0.5812
vn -0.3821 0.8815 0.2776
vn -0.3821 0.8815 0.2776
vn -0.3821 0.8815 0.2776
vn -0.3821 0.8815 0.2776
vn -0.9888 0.1490 0.0000
vn -0.9888 0.1490 0.0000
vn -0.9888 0.1490 0.0000
vn -0.9888 0.1490 0.0000
vn -0.4722 0.8815 0.0000
vn -0.4722 0.8815 0.0000
vn -0.4722 0.8815 0.0000
vn -0.4722 0.8815 0.0000
vn -0.4722 -0.8815 0.0000
vn -0.4722 -0.8815 0.0000
vn -0.4722 -0.8815 0.0000
vn -0.4722 -0.8815 0.0000
vn -0.9888 -0.1490 0.0000
vn -0.9888 -0.1490 0.0000
vn -0.9888 -0.1490 0.0000
vn -0.9888 -0.1490 0.0000
vn -0.7246 0.6892 0.0000
vn -0.7246 0.6892 0.0000
vn -0.7246 0.6892 0.0000
vn -0.7246 0.6892 0.0000
vn -0.1643 -0.9864 0.0000
vn -0.1643 -0.9864 0.0000
vn -0.1643 -0.9864 0.0000
vn -0.8999 -0.4361 0.0000
vn -0.8999 -0.4361 0.0000
vn -0.8999 -0.4361 0.0000
vn -0.8999 -0.4361 0.0000
vn -0.8999 0.4361 0.0000
vn -0.8999 0.4361 0.0000
vn -0.8999 0.4361 0.0000
vn -0.8999 0.4361 0.0000
vn -0.1643 0.9864 0.0000
vn -0.1643 0.9864 0.0000
vn -0.1643 0.9864 0.0000
vn -0.7246 -0.6892 0.0000
vn -0.7246 -0.6892 0.0000
vn -0.7246 -0.6892 0.0000
vn -0.7246 -0.6892 0.0000
vn -0.1329 0.9864 -0.0966
vn -0.1329 0.9864 -0.0966
vn -0.1329 0.9864 -0.0966
vn -0.5862 -0.6892 -0.4259
vn -0.5862 -0.6892 -0.4259
vn -0.5862 -0.6892 -0.4259
vn -0.5862 -0.6892 -0.4259
vn -0.8000 0.1490 -0.5812
vn -0.8000 0.1490 -0.5812
vn -0.8000 0.1490 -0.5812
vn -0.8000 0.1490 -0.5812
vn -0.3821 0.8815 -0.2776
vn -0.3821 0.8815 -0.2776
vn -0.3821 0.8815 -0.2776
vn -0.3821 0.8815 -0.2776
vn -0.3821 -0.8815 -0.2776
vn -0.3821 -0.8815 -0.2776
vn -0.3821 -0.8815 -0.2776
vn -0.3821 -0.8815 -0.2776
vn -0.8000 -0.1490 -0.5812
vn -0.8000 -0.1490 -0.5812
vn -0.8000 -0.1490 -0.5812
vn -0.8000 -0.1490 -0.5812
vn -0.5862 0.6892 -0.4259
vn -0.5862 0.6892 -0.4259
vn -0.5862 0.6892 -0.4259
vn -0.5862 0.6892 -0.4259
vn -0.1329 -0.9864 -0.0966
vn -0.1329 -0.9864 -0.0966
vn -0.1329 -0.9864 -0.0966
vn -0.7280 -0.4361 -0.5290
vn -0.7280 -0.4361 -0.5290
vn -0.7280 -0.4361 -0.5290
vn -0.7280 -0.4361 -0.5290
vn -0.7280 0.4361 -0.5290
vn -0.7280 0.4361 -0.5290
vn -0.7280 0.4361 -0.5290
vn -0.7280 0.4361 -0.5290
vn -0.2781 0.4361 -0.8559
vn -0.2781 0.4361 -0.8559
vn -0.2781 0.4361 -0.8559
vn -0.2781 0.4361 -0.8559
vn -0.0508 0.9864 -0.1562
vn -0.0508 0.9864 -0.1562
vn -0.0508 0.9864 -0.1562
vn -0.2239 -0.6892 -0.6892
vn -0.2239 -0.6892 -0.6892
vn -0.2239 -0.6892 -0.6892
vn -0.2239 -0.6892 -0.6892
vn -0.3056 0.1490 -0.9404
vn -0.3056 0.1490 -0.9404
vn -0.3056 0.1490 -0.9404
vn -0.3056 0.1490 -0.9404
vn -0.1459 0.8815 -0.4491
vn -0.1459 0.8815 -0.4491
vn -0.1459 0.8815 -0.4491
vn -0.1459 0.8815 -0.4491
vn -0.1459 -0.8815 -0.4491
vn -0.1459 -0.8815 -0.4491
vn -0.1459 -0.8815 -0.4491
vn -0.1459 -0.8815 -0.4491
vn -0.3056 -0.1490 -0.9404
vn -0.3056 -0.1490 -0.9404
vn -0.3056 -0.1490 -0.9404
vn -0.3056 -0.1490 -0.9404
vn -0.2239 0.6892 -0.6892
vn -0.2239 0.6892 -0.6892
vn -0.2239 0.6892 -0.6892
vn -0.2239 0.6892 -0.6892
vn -0.0508 -0.9864 -0.1562
vn -0.0508 -0.9864 -0.1562
vn -0.0508 -0.9864 -0.1562
vn -0.2781 -0.4361 -0.8559
vn -0.2781 -0.4361 -0.8559
vn -0.2781 -0.4361 -0.8559
vn -0.2781 -0.4361 -0.8559
s off
f 90//1 89//2 9//3 10//4
f 2//5 1//6 6//7 7//8
f 92//9 91//10 13//11 14//12
f 4//13 90//14 10//15 11//16
f 3//17 2//18 7//19 8//20
f 42//21 92//22 14//23
f 5//24 4//25 11//26 12//27
f 89//28 3//29 8//30 9//31
f 1//32 52//33 6//34
f 91//35 5//36 12//37 13//38
f 7//39 6//40 15//41 16//42
f 14//43 13//44 22//45 23//46
f 11//47 10//48 19//49 20//50
f 8//51 7//52 16//53 17//54
f 42//55 14//56 23//57
f 12//58 11//59 20//60 21//61
f 9//62 8//63 17//64 18//65
f 6//66 52//67 15//68
f 13//69 12//70 21//71 22//72
f 10//73 9//74 18//75 19//76
f 22//77 21//78 30//79 31//80
f 19//81 18//82 27//83 28//84
f 16//85 15//86 24//87 25//88
f 23//89 22//90 31//91 32//92
f 20//93 19//94 28//95 29//96
f 17//97 16//98 25//99 26//100
f 42//101 23//102 32//103
f 21//104 20//105 29//106 30//107
f 18//108 17//109 26//110 27//111
f 15//112 52//113 24//114
f 27//115 26//116 35//117 36//118
f 24//119 52//120 33//121
f 31//122 30//123 39//124 40//125
f 28//126 27//127 36//128 37//129
f 25//130 24//131 33//132 34//133
f 32//134 31//135 40//136 41//137
f 29//138 28//139 37//140 38//141
f 26//142 25//143 34//144 35//145
f 42//146 32//147 41//148
f 30//149 29//150 38//151 39//152
f 39//153 38//154 48//155 49//156
f 36//157 35//158 45//159 46//160
f 33//161 52//162 43//163
f 40//164 39//165 49//166 50//167
f 37//168 36//169 46//170 47//171
f 34//172 33//173 43//174 44//175
f 41//176 40//177 50//178 51//179
f 38//180 37//181 47//182 48//183
f 35//184 34//185 44//186 45//187
f 42//188 41//189 51//190
f 45//191 44//192 54//193 55//194
f 42//195 51//196 61//197
f 49//198 48//199 58//200 59//201
f 46//202 45//203 55//204 56//205
f 43//206 52//207 53//208
f 50//209 49//210 59//211 60//212
f 47//213 46//214 56//215 57//216
f 44//217 43//218 53//219 54//220
f 51//221 50//222 60//223 61//224
f 48//225 47//226 57//227 58//228
f 61//229 60//230 69//231 70//232
f 58//233 57//234 66//235 67//236
f 55//237 54//238 63//239 64//240
f 42//241 61//242 70//243
f 59//244 58//245 67//246 68//247
f 56//248 55//249 64//250 65//251
f 53//252 52//253 62//254
f 60//255 59//256 68//257 69//258
f 57//259 56//260 65//261 66//262
f 54//263 53//264 62//265 63//266
f 66//267 65//268 74//269 75//270
f 63//271 62//272 71//273 72//274
f 70//275 69//276 78//277 79//278
f 67//279 66//280 75//281 76//282
f 64//283 63//284 72//285 73//286
f 42//287 70//288 79//289
f 68//290 67//291 76//292 77//293
f 65//294 64//295 73//296 74//297
f 62//298 52//299 71//300
f 69//301 68//302 77//303 78//304
f 71//305 52//306 80//307
f 78//308 77//309 86//310 87//311
f 75//312 74//313 83//314 84//315
f 72//316 71//317 80//318 81//319
f 79//320 78//321 87//322 88//323
f 76//324 75//325 84//326 85//327
f 73//328 72//329 81//330 82//331
f 42//332 79//333 88//334
f 77//335 76//336 85//337 86//338
f 74//339 73//340 82//341 83//342
f 83//343 82//344 3//345 89//346
f 80//347 52//348 1//349
f 87//350 86//351 5//352 91//353
f 84//354 83//355 89//356 90//357
f 81//358 80//359 1//360 2//361
f 88//362 87//363 91//364 92//365
f 85//366 84//367 90//368 4//369
f 82//370 81//371 2//372 3//373
f 42//374 88//375 92//376
f 86//377 85//378 4//379 5//380
